<?xml version="1.0" encoding="UTF-8"?><svg xmlns="http://www.w3.org/2000/svg" viewBox="0 0 32 32"><defs><style>.cls-1{fill:#ff0;stroke:#ff0;stroke-width:.24px;}.cls-1,.cls-2{stroke-linecap:round;stroke-linejoin:round;}.cls-3{fill:#fff;}.cls-2{fill:#5e3eff;stroke:#5e3eff;stroke-width:2.31px;}</style></defs><g id="_主catch"><rect class="cls-2" width="32" height="32"/><path class="cls-1" d="M6.17,3.69c1.11,1.85-.11,3.45-1.74,4.06,2.48-.77,3.02,.28,3.91,2.3-.36-.83-.35-1.96-.14-2.83,.19-.81,1.02-1.71,1.81-2-1.61,.41-3.2,.23-3.83-1.54Z"/></g><g id="BANNER訊息"><g><g><path class="cls-3" d="M25.57,10.99c0-.18,0-.49,0-.84,0-.28,0-.58-.01-.85,0-.47,.23-.5,0-.85-.24,0-.59,0-.99-.01-.29,0-.62,0-.98,0-.31,0-.64-.03-.98-.04-.32,0-.65,.01-.99,0s-.65-.03-.99-.03-.66-.01-.99-.02-.66,.01-.99,0-.67-.02-.99-.01c-.34,0-.67,.02-.99,.02-.35,0-.68,0-.99,.02-.36,.01-.7,.02-.99,.04-.42,.03-.77,.06-.98,.11-.01,.17-.03,.51-.04,.95,0,.27,0,.59-.02,.94,0,.29-.03,.6-.03,.94,0,.3,0,.61,0,.94,0,.3,0,.62,0,.94s-.02,.62-.03,.94-.03,.62-.04,.94,0,.63,0,.95,0,.64,0,.95-.02,.64-.02,.94,0,.64,0,.94c0,.33-.02,.64-.03,.95,0,.33,0,.65,0,.94,0,.35,0,.66,0,.94,0,.39-.02,.79-.03,1.18s0,.79,.04,1.18c.31-.02,.62-.02,.93-.03s.62-.03,.93-.03,.62,.03,.93,.03,.62,0,.93,.01,.62,.03,.94,.04c.22,0,.55,.02,.95,.02,.29,0,.61-.02,.96-.03,.3,0,.63-.01,.96-.02s.64-.02,.96-.03,.65-.02,.96-.04c.33-.02,.65-.05,.96-.07,.35-.03,.67-.04,.96-.07,.41-.05,.73-.12,.94-.18,0-.01-.01-.36-.02-.96,0-.28,0-.61,0-.98,0-.3,0-.63-.01-.97,0-.31-.02-.64-.03-.97,0-.32-.02-.64-.03-.98s0-.65-.01-.98-.03-.65-.03-.98,0-.66,0-.98,0-.66-.02-.98c0-.34,0-.67-.02-.98,0-.35-.03-.68-.04-.98,0-.37-.02-.7-.02-.98,0-.5,0-.84,0-.97Zm-2.38,12.7s0,0,0,0c-.34,0-.7,0-1.05,0s-.71-.03-1.06-.04c-.36-.01-.72-.02-1.05-.03-.38-.01-.74-.01-1.05-.02-.32-.01-.58-.04-.77-.05-.28,0-.56,0-.83,0-.37-.01-.75-.04-1.13-.05s-.75-.02-1.13-.02c-.31,0-.61,.02-.9,.03,0-.35,0-.71,.01-1.06,0-.23,0-.48,0-.71,0-.28,0-.61,0-.98,0-.3,.02-.63,.02-.97,0-.31,.02-.64,.02-.97,0-.32,0-.64,0-.98s0-.65,0-.98,.02-.65,.03-.98,0-.66,0-.98,0-.66,0-.98,.02-.66,.03-.98c0-.34,.03-.67,.04-.98,0-.34,0-.67,0-.98,0-.36,.01-.69,.02-.98,.01-.39,.03-.72,.04-.97,.17-.02,.47,0,.85,.05,.25,.03,.53,.09,.84,.13,.26,.03,.55,.07,.84,.1,.27,.03,.56,.04,.85,.06s.57,.04,.86,.04c.32,0,.63-.02,.92-.05,.31-.02,.61-.05,.91-.08,.31-.04,.6-.11,.9-.15s.6-.06,.9-.08,.59-.05,.9-.05c.28,0,.54,.02,.79,.02,.29,0,.55,.02,.78,.03,0,.29,.02,.65,.02,.99,0,.41,0,.79,0,.99,0,.13,0,.48,0,.99,0,.29,0,.62,.01,1,0,.31,.02,.64,.03,.99,0,.32,0,.65,0,1,0,.32,.04,.66,.04,1s.01,.66,.02,1,0,.67,0,1.01,0,.67,.01,1,.02,.68,.03,1c0,.31,.02,.62,.03,.91,0,.32,0,.62,.01,.91,0,.33,.03,.64,.03,.91,0,.36,0,.67,0,.9-.22,.02-.51,.03-.93,.04-.26,0-.57,.03-.94,.03Z"/><path class="cls-3" d="M19.02,24.4c-.27,0-.51,0-.7-.01h-.16c-.18-.01-.36-.02-.55-.03l-.39-.02c-.31,0-.62,0-.93,0-.13,0-.27-.01-.4-.02-.19,0-.37-.02-.57-.02-.17,0-.35,0-.52,.02-.12,0-.25,.01-.37,.01h-.24c-.23,0-.45,.01-.68,.03l-.28,.02-.02-.28c-.03-.41-.04-.81-.04-1.2,0-.18,0-.36,.01-.54,0-.21,.01-.43,.01-.64v-.35c0-.18,0-.38,0-.59v-.94c0-.15,.01-.31,.02-.47,0-.15,.01-.31,.01-.47,0-.15,0-.3,0-.46,0-.16,0-.32,0-.49l.03-1.9c0-.15,0-.3,0-.45,0-.17,0-.33,0-.5,0-.16,.01-.32,.02-.48,0-.15,.02-.3,.02-.46,0-.16,0-.33,.02-.49v-.45c.02-.16,.02-.32,.02-.47s0-.32,0-.47c0-.16,0-.32,0-.47,0-.16,0-.32,0-.47,0-.18,.01-.36,.02-.53l.02-.41c0-.17,0-.33,0-.48,0-.16,0-.32,0-.46,.02-.45,.03-.79,.04-.96l.02-.21,.2-.05c.23-.06,.58-.09,1.03-.12,.22-.02,.47-.02,.73-.03h.27c.23-.02,.47-.02,.73-.02h.66c.2-.02,.42-.02,.62-.02,.17,0,.34,0,.52,0,.17,0,.33,0,.5,0,.13,0,.27,0,.41,0,.18,0,.36,0,.54,0l.99,.02c.18,0,.35,.01,.52,.02,.16,0,.31,.01,.47,.02,.17,0,.33,0,.5,0,.17,0,.33,0,.49,0,.18,0,.36,.01,.53,.02,.16,0,.31,.02,.46,.02,.19,0,.38,0,.55,0,.15,0,.29,0,.43,0,.4,0,.75,.01,.99,.01h.15l.08,.13c.2,.3,.16,.49,.1,.69-.03,.09-.05,.17-.05,.31v.85c.01,.25,.01,.48,.01,.66v.33c0,.17,0,.46,0,.82l.02,.98c0,.14,.01,.29,.02,.44,.01,.17,.02,.36,.02,.54l.03,1.96c0,.16,0,.32,0,.47,0,.17,0,.34,0,.5,0,.16,0,.32,.02,.48,0,.17,.01,.33,.02,.49l.08,3.9c0,.2,0,.4,0,.57,0,.14,0,.28,0,.4,0,.49,.02,.82,.02,.92v.22s-.21,.09-.21,.09c-.21,.06-.55,.14-.98,.18-.2,.02-.41,.04-.64,.05l-.6,.04c-.22,.02-.46,.04-.69,.05-.2,.01-.41,.02-.62,.03h-.35c-.22,.02-.44,.03-.65,.04h-.31c-.24,.02-.48,.02-.7,.03h-.26c-.15,0-.3,.01-.44,.02-.18,0-.36,.01-.52,.02h-.1Zm-5.04-15.64c0,.18-.02,.43-.03,.72,0,.14,0,.29,0,.44,0,.16,0,.32,0,.49l-.02,.42c0,.17-.01,.34-.02,.52,0,.15,0,.3,0,.46,0,.16,0,.32,0,.48,0,.15,0,.3,0,.46s0,.32,0,.48l-.03,.94c0,.16-.01,.31-.02,.47,0,.15-.02,.31-.02,.46,0,.16,0,.32,0,.48,0,.15,0,.31,0,.46v.95c-.01,.16-.02,.33-.02,.49v.46c-.01,.16-.01,.32-.01,.48,0,.16,0,.31,0,.47,0,.17,0,.33-.01,.49,0,.16-.01,.31-.01,.46v.94c0,.21,0,.4,0,.58v.35c0,.22,0,.44-.01,.65,0,.18-.01,.35-.01,.53,0,.29,0,.59,.02,.88,.06,0,.12,0,.18,0v-.28c0-.24,0-.49,0-.74v-.33c0-.13,0-.27,0-.41v-.3s0-.98,0-.98c0-.15,0-.3,0-.45,0-.17,0-.34,.01-.52,0-.17,0-.34,.01-.52l.02-1.43c0-.17,0-.34,0-.5,0-.16,0-.31,0-.47,0-.16,0-.33,.01-.49,0-.16,.01-.33,.01-.49,0-.15,0-.31,0-.46,0-.17,0-.35,0-.52,0-.15,0-.31,0-.46,0-.17,0-.35,0-.52,0-.17,0-.34,.02-.51v-.47c.02-.17,.03-.34,.03-.51,0-.16,.02-.32,.02-.48,0-.17,0-.34,0-.5,0-.17,0-.33,0-.48l.02-.98c0-.3,.02-.57,.03-.8l.02-.42,.24-.02c.19-.02,.5,0,.92,.05,.12,.02,.25,.04,.38,.06,.14,.02,.3,.05,.46,.07,.26,.03,.54,.06,.84,.09,.23,.02,.48,.04,.73,.05l.31,.02c.52,.03,1.05,.02,1.53-.02h.13c.27-.03,.52-.05,.77-.08,.15-.02,.3-.05,.45-.07,.15-.03,.3-.05,.45-.07,.26-.04,.52-.06,.79-.08l.27-.02c.15-.01,.3-.03,.46-.03-.1,0-.2,0-.31-.01-.15,0-.31,0-.47,0-.17,0-.34,0-.52,0-.16,0-.32,0-.48-.02-.17,0-.34-.01-.51-.02l-.99-.02c-.17,0-.35,0-.53,0-.15,0-.3,0-.46,0-.16,0-.31,0-.46,0-.18,0-.33,0-.53,0-.2,0-.39,0-.58,.01h-.67c-.25,.02-.49,.02-.72,.03h-.27c-.26,.01-.49,.02-.71,.04-.26,.02-.53,.04-.73,.07Zm2.06,15c.09,0,.18,0,.26,0,.05,0,.1,0,.15,0-.07,0-.15,0-.22,0-.06,0-.13,0-.19,0Zm-1.21-.01c-.12,0-.23,0-.35,.01h-.15s.09,0,.09,0c.12,0,.24,0,.36-.01,.02,0,.03,0,.05,0Zm9.62-15.04c.12,0,.24,0,.35,.01h.27s0,.28,0,.28c0,.13,0,.26,.01,.41,0,.19,.01,.39,.01,.58v.99c0,.13,0,.48,.01,.99l.04,1.99c0,.16,0,.33,0,.49s0,.33,0,.5c0,.16,.01,.31,.02,.47,0,.17,.02,.35,.02,.52l.02,1c0,.17,0,.34,0,.51s0,.33,0,.5l.04,2.01c0,.16,0,.32,.01,.47l.02,1.35c0,.17,.01,.33,.02,.49,0,.15,.01,.29,.01,.42,0,.21,0,.41,0,.57,0,.07,0,.14,0,.2,.07-.01,.13-.03,.19-.04,0-.17-.01-.42-.02-.74,0-.13,0-.26,0-.41,0-.17,0-.36,0-.56l-.08-3.9c0-.16,0-.32-.02-.48,0-.17-.01-.33-.02-.5,0-.17,0-.35,0-.52,0-.15,0-.31,0-.46l-.03-1.96c0-.18-.01-.35-.02-.52,0-.16-.02-.31-.02-.46l-.02-.98c0-.37,0-.65,0-.83v-.34c0-.18,0-.41,0-.66v-.85c-.01-.24,.04-.39,.07-.49,.01-.04,.02-.06,.02-.08-.22,0-.5,0-.82-.01-.04,0-.07,0-.11,0Zm-6.44,14.54c.07,0,.13,0,.2,0,.09,0,.19,.01,.32,.02,.13,.01,.28,.02,.45,.03,.15,0,.32,0,.49,.01,.18,0,.36,0,.56,.01,.26,0,.53,.02,.81,.02l.68,.02c.2,0,.41,.02,.61,.02,.35,0,.71,0,1.05,0h.28c.13,0,.25,0,.37-.01h.28c.26-.02,.48-.02,.65-.03v-.07c0-.17,0-.35,0-.56,0-.13,0-.27-.01-.41,0-.16-.01-.33-.02-.5l-.02-1.34c0-.16-.01-.32-.01-.48l-.04-2.01c0-.17,0-.34,0-.51s0-.33,0-.5l-.02-1c0-.17-.01-.34-.02-.5,0-.17-.02-.33-.02-.49,0-.18,0-.35,0-.52s0-.32,0-.48l-.04-1.99c0-.51,0-.87,0-1v-.99c0-.19-.01-.39-.02-.57,0-.05,0-.1,0-.15-.03,0-.07,0-.1,0-.13,0-.27-.01-.41-.01l-.79-.02c-.24,0-.49,.02-.72,.04l-.28,.02c-.26,.02-.51,.04-.76,.07-.14,.02-.28,.04-.42,.07-.16,.03-.31,.06-.48,.08-.26,.03-.52,.05-.8,.08h-.12c-.51,.05-1.07,.06-1.62,.03l-.31-.02c-.26-.01-.51-.03-.75-.05-.3-.03-.59-.06-.85-.1-.17-.02-.33-.05-.48-.07-.13-.02-.25-.04-.36-.06-.25-.03-.42-.05-.55-.05-.01,.2-.02,.44-.03,.7l-.02,.98c0,.15,0,.31,0,.47,0,.17,0,.34,0,.51,0,.16-.01,.32-.02,.49,0,.16-.02,.32-.02,.49v.48c-.02,.17-.03,.34-.03,.51,0,.17,0,.34,0,.51,0,.16,0,.32,0,.48,0,.17,0,.34,0,.51,0,.16,0,.31,0,.47,0,.17,0,.33-.01,.5,0,.16-.01,.32-.01,.48,0,.15,0,.31,0,.46,0,.17,0,.34,0,.52l-.02,1.44c0,.17-.01,.34-.01,.51,0,.18,0,.36-.01,.53,0,.15,0,.3,0,.44v.97s0,.29,0,.29c0,.14,0,.29,0,.43v.33c-.01,.14-.01,.28-.02,.43,.56-.02,1.17-.01,1.75,0,.21,0,.42,.02,.63,.03,.17,0,.33,.02,.5,.02,.13,0,.27,0,.41,0,.07,0,.15,0,.23,0Z"/></g><g><path class="cls-3" d="M14.23,23.48c.28,.01,.65-.11,1.01-.25s.69-.31,.95-.4c.35-.11,.71-.21,1.06-.32s.71-.2,1.06-.3,.71-.19,1.07-.29c.33-.1,.65-.22,.98-.32s.65-.2,.98-.31,.65-.21,.97-.33,.64-.23,.96-.35c.16-.06,.45-.25,.75-.4,.31-.15,.64-.27,.81-.17s.2,.4,.2,.7-.02,.6-.01,.76c0,.06-.01,.39,0,.79,0,.26,.02,.54,.02,.79,0,.43,.01,.79,.02,.79,0,0-.37-.03-.98-.05-.28-.01-.61,0-.98-.02-.3-.01-.63-.04-.98-.05-.32-.01-.64-.03-.98-.04s-.65-.01-.98-.03-.66-.03-.99-.04-.66-.01-.99-.02c-.34-.01-.67-.03-.99-.05-.35-.01-.68-.02-.99-.03-.37-.01-.7-.04-.99-.05-.6-.02-.97-.03-.98-.03Z"/><path class="cls-3" d="M24.06,24.11c-.13,0-.27,0-.42,0-.17,0-.36,0-.56-.01-.15,0-.31-.01-.47-.02-.16-.01-.33-.02-.51-.03l-1.46-.05c-.17,0-.34,0-.51-.01l-.99-.04c-.16,0-.33,0-.49-.01-.17,0-.33,0-.5-.01-.18,0-.35-.01-.52-.02l-.47-.02c-.18,0-.36-.01-.53-.01h-.46c-.2-.02-.39-.03-.56-.04-.15,0-.29-.02-.42-.02-.47-.02-.8-.03-.92-.03h0s-.03,0-.05,0l.02-.56h.03c.26,0,.61-.13,.87-.23,.14-.06,.27-.12,.4-.17,.21-.09,.41-.18,.57-.23,.32-.1,.65-.2,.97-.29l.1-.03c.24-.07,.47-.13,.71-.2l.78-.22c.21-.06,.42-.11,.63-.18,.18-.05,.36-.11,.54-.17,.15-.05,.29-.1,.44-.14l.1-.03c.29-.09,.59-.18,.88-.28l.28-.09c.23-.08,.46-.15,.68-.23l.13-.05c.28-.1,.55-.2,.83-.3,.08-.03,.18-.09,.31-.16,.13-.07,.27-.15,.41-.22,.37-.18,.78-.34,1.08-.16,.29,.18,.33,.57,.34,.94,0,.17,0,.33,0,.48,0,.11,0,.21,0,.27v.1c0,.13-.01,.4,0,.7,0,.13,0,.27,.01,.41,0,.13,0,.26,.01,.38,0,.38,0,.69,.02,.75l-.28,.03s-.39,.27-1,.25Zm-8.19-.85c.11,0,.22,.01,.33,.01h.45c.17,.02,.35,.02,.54,.03l.48,.02c.17,0,.34,.02,.51,.02,.16,0,.32,0,.49,.01,.16,0,.33,0,.5,.01l.99,.04c.17,0,.34,0,.5,.01l1.46,.05c.18,0,.35,.02,.52,.03,.16,0,.31,.02,.46,.02,.37,.01,.7,0,.98,.02,.28,0,.51,.02,.68,.03,0-.13,0-.28,0-.47,0-.14,0-.26-.01-.39,0-.14-.01-.29-.01-.43,0-.31,0-.58,0-.72v-.08c0-.07,0-.18,0-.3,0-.14,.01-.3,0-.45,0-.38-.06-.46-.07-.47,0,0-.11-.02-.54,.18-.13,.07-.26,.14-.38,.21-.16,.09-.29,.17-.39,.2-.28,.11-.56,.21-.84,.31l-.13,.04c-.23,.08-.46,.16-.7,.24l-.28,.09c-.29,.1-.59,.19-.88,.28l-.1,.03c-.14,.04-.28,.09-.43,.14-.18,.06-.37,.12-.55,.18-.22,.06-.43,.12-.65,.18l-.78,.21c-.24,.07-.47,.13-.71,.2l-.1,.03c-.32,.09-.64,.18-.95,.29-.12,.04-.26,.1-.41,.16Z"/></g><path class="cls-3" d="M5.54,27.28c-.06,0-.11,0-.15,0-.21-.03-.39-.17-.47-.36-.18-.45-.06-.73,.1-.97,.04-.06,.06-.09,.08-.15,.09-.28,.2-.57,.3-.78,.08-.17,.15-.34,.23-.52l.91-2.16c.07-.16,.14-.32,.21-.48l.56-1.33c.13-.3,.26-.61,.39-.91,.05-.12,.1-.24,.15-.36,.07-.17,.13-.34,.21-.5,.13-.28,.27-.56,.4-.83,.08-.16,.16-.31,.25-.47,.06-.11,.13-.23,.19-.34,.06-.11,.11-.23,.17-.35,.07-.16,.15-.32,.23-.48,.09-.16,.16-.33,.24-.49l.06-.13c.11-.24,.24-.48,.39-.7,.13-.19,.23-.4,.34-.61,.15-.3,.26-.54,.37-.78,.07-.15,.14-.29,.22-.43,.05-.1,.11-.21,.16-.31l1.12-2.44c.17-.36,.23-.57,.27-.77,.07-.35,.13-.67,.32-1.07,.07-.15,.2-.26,.36-.31,.42-.13,.64-.1,.9-.05,.08,.02,.18,.03,.33,.03v1.19c-.26,0-.42-.03-.55-.06-.03,0-.05,0-.07-.01-.05,.14-.07,.27-.09,.41-.09,.45-.19,.75-.38,1.16l-1.12,2.44c-.06,.12-.12,.24-.18,.36-.06,.12-.13,.24-.19,.37-.12,.26-.24,.52-.36,.77-.16,.31-.28,.55-.43,.78-.11,.18-.22,.36-.31,.55l-.06,.12c-.09,.19-.17,.37-.27,.56-.07,.14-.14,.28-.2,.42-.06,.13-.12,.27-.19,.4-.07,.13-.14,.26-.21,.38-.07,.14-.15,.27-.22,.41-.13,.27-.26,.54-.39,.81-.06,.14-.12,.29-.18,.43-.05,.13-.11,.27-.16,.4-.13,.3-.26,.59-.38,.89l-.37,.9c-.06,.15-.13,.3-.2,.45-.07,.15-.13,.29-.19,.44l-.92,2.16c-.08,.19-.16,.38-.24,.56-.06,.13-.13,.3-.19,.47,.08-.02,.15-.04,.19-.06l4.42-1.65c.16-.06,.32-.11,.48-.16l.84-.28c.16-.05,.33-.11,.5-.17,.15-.05,.29-.11,.44-.18,.15-.06,.29-.12,.45-.18l.14-.08c.15-.08,.3-.15,.3-.16l.38,1.13-.19-.56,.28,.53-.19,.11c-.14,.08-.29,.15-.3,.16-.14,.05-.27,.11-.41,.17-.17,.07-.33,.14-.5,.2-.18,.06-.35,.12-.53,.18l-.85,.28c-.15,.05-.3,.1-.45,.15l-4.4,1.64c-.22,.09-.92,.25-1.35,.25Z"/><path class="cls-3" d="M7.07,23.44l-.27-1.16c.28-.06,.56-.14,.84-.22l.14-.04c.23-.06,.46-.13,.7-.2,.28-.09,.56-.18,.84-.28l2.54-.88c.3-.1,.59-.19,.87-.28,.31-.09,.61-.17,.9-.23l.27,1.16c-.26,.06-.54,.13-.83,.21-.27,.08-.55,.17-.84,.26l-2.53,.88c-.29,.1-.57,.19-.86,.29-.24,.08-.49,.15-.73,.22l-.14,.04c-.3,.09-.6,.16-.89,.23Z"/><path class="cls-3" d="M8.11,20.44l-.08-1.18c.3-.02,.59-.06,.88-.11,.3-.05,.59-.13,.89-.2,.28-.07,.57-.15,.85-.23l.97-.27c.31-.08,.62-.16,.95-.24,.32-.07,.64-.13,.97-.18l.18,1.17c-.31,.05-.61,.1-.9,.17-.31,.07-.6,.15-.9,.22l-.91,.25c-.34,.1-.64,.18-.93,.25-.32,.08-.65,.16-.97,.22-.33,.06-.67,.1-1.01,.12Z"/><path class="cls-3" d="M9.78,17.64l-.19-1.17c.18-.03,.53-.13,.94-.26l1.01-.33c.36-.11,.72-.23,1.03-.32,.9-.26,1.25-.32,1.54-.1l-.7,.96,.35-.48-.08,.58s-.18,.01-.78,.19c-.31,.09-.65,.2-1.01,.31l-1.01,.33c-.48,.15-.89,.26-1.11,.3Z"/></g></g></svg>